<svg xmlns="http://www.w3.org/2000/svg" version="1.1" xmlns:xlink="http://www.w3.org/1999/xlink"
    xmlns:svgjs="http://svgjs.dev/svgjs" width="1500" height="939" viewBox="0 0 1500 939">
    <g transform="matrix(1,0,0,1,-0.9090909090909918,184.51257465786898)">
        <svg viewBox="0 0 396 248" data-background-color="#ffffff"
            preserveAspectRatio="xMidYMid meet" height="939" width="1500"
            xmlns="http://www.w3.org/2000/svg" xmlns:xlink="http://www.w3.org/1999/xlink">
            <g id="tight-bounds" transform="matrix(1,0,0,1,0.2400000000000091,0.4000000000000057)">
                <svg viewBox="0 0 395.52 247.2" height="247.2" width="395.52">
                    <g>
                        <svg></svg>
                    </g>
                    <g>
                        <svg viewBox="0 0 395.52 247.2" height="247.2" width="395.52">
                            <g transform="matrix(1,0,0,1,75.54432,51.68169358430947)">
                                <svg viewBox="0 0 244.43135999999998 143.83661283138105"
                                    height="143.83661283138105" width="244.43135999999998">
                                    <g>
                                        <svg viewBox="0 0 425.5751770378359 250.43141751630253"
                                            height="143.83661283138105" width="244.43135999999998">
                                            <g transform="matrix(1,0,0,1,0,59.08088418456636)">
                                                <svg
                                                    viewBox="0 0 244.43135999999998 132.26964914716982"
                                                    height="132.26964914716982"
                                                    width="244.43135999999998">
                                                    <g id="textblocktransform">
                                                        <svg
                                                            viewBox="0 0 244.43135999999998 132.26964914716982"
                                                            height="132.26964914716982"
                                                            width="244.43135999999998"
                                                            id="textblock">
                                                            <g>
                                                                <svg
                                                                    viewBox="0 0 244.43135999999998 132.26964914716982"
                                                                    height="132.26964914716982"
                                                                    width="244.43135999999998">
                                                                    <g
                                                                        transform="matrix(1,0,0,1,0,0)">
                                                                        <svg
                                                                            width="244.43135999999998"
                                                                            viewBox="1.59 -23.97 64.69 35.00999999999999"
                                                                            height="132.26964914716982"
                                                                            data-palette-color="#c56e33">
                                                                            <path
                                                                                d="M35.42-23.17L35.42-23.17Q37.79-23.17 37.79-21.85L37.79-21.85Q37.79-21.58 37.17-20.59 36.55-19.6 35.72-17.87 34.89-16.14 32.64-9.64 30.4-3.15 30.05-2.49L30.05-2.49Q28.93-0.37 26.95-0.37L26.95-0.37Q26.05-0.37 25.12-2.15 24.19-3.93 22.2-9.02 20.21-14.11 19.68-14.11L19.68-14.11Q19.6-14.11 17.43-8.78 15.26-3.44 14.84-2.66L14.84-2.66Q13.67-0.44 12-0.44 10.33-0.44 8.42-6.1L8.42-6.1 7.81-8.01Q5.2-16.41 2.95-19.53L2.95-19.53Q1.59-21.44 1.59-21.83 1.59-22.22 1.98-22.56L1.98-22.56Q2.81-23.29 4.91-23.29L4.91-23.29 5.83-23.29Q8.79-23.29 9.5-22.02L9.5-22.02Q9.77-21.53 9.92-19.86 10.08-18.19 10.34-16.71 10.6-15.23 11.74-11.62 12.89-8.01 13.92-8.01L13.92-8.01Q14.72-8.01 15.87-11.18 17.02-14.36 17.02-17.02L17.02-17.02Q17.02-17.65 16.76-18.7 16.5-19.75 16.5-20.14L16.5-20.14Q16.5-21.61 18.31-22.41L18.31-22.41Q19.19-22.8 20.96-22.8 22.73-22.8 23.9-21.41L23.9-21.41Q24.51-20.68 24.51-19.31L24.51-19.31 24.46-18.6 24.44-17.82Q24.44-17.14 25.51-13.59 26.59-10.03 27.06-9.07 27.54-8.11 28.05-8.11L28.05-8.11Q29.1-8.11 30.48-12.13 31.86-16.16 31.86-19.04L31.86-19.04 31.67-21.51Q31.67-23.17 35.42-23.17ZM60.69-10.89L60.69-10.89 60.69-12.33Q60.69-16.26 59.08-18.6 57.47-20.95 55.03-20.95L55.03-20.95 54.78-20.95Q53.44-20.95 52.17-20.2 50.9-19.46 50.23-18.31 49.56-17.16 49.56-11.55L49.56-11.55 49.56-9.47 49.58-9.2 49.58-8.18 49.61-7.93 49.61-7.42Q49.66-6.88 49.66-6.64L49.66-6.64Q49.66-4.57 50.99-3.41 52.32-2.25 54.56-2.25L54.56-2.25 54.81-2.25Q57.49-2.25 59.09-4.71 60.69-7.18 60.69-10.89ZM50.93-0.39Q49.66-0.39 49.66 2.89 49.66 6.18 50.13 7.07 50.61 7.96 51.67 8.69 52.73 9.42 52.73 9.94L52.73 9.94Q52.73 11.04 49.56 11.04L49.56 11.04 47.12 11.04Q41.55 11.04 41.55 9.91L41.55 9.91Q41.55 9.57 42.97 8.2L42.97 8.2Q43.72 7.47 44.16 5.24 44.6 3 44.6-3.22L44.6-3.22 44.6-13.35 44.55-15.97Q44.55-18.36 43.92-19.46L43.92-19.46Q43.67-19.87 42.65-20.59 41.62-21.31 41.62-21.83 41.62-22.34 42.21-22.63L42.21-22.63Q44.11-23.56 47.24-23.56L47.24-23.56Q48.04-23.56 48.89-22.58 49.73-21.61 49.83-21.61L49.83-21.61Q50.22-21.61 51.4-22.28 52.59-22.95 52.66-23L52.66-23Q54.76-23.97 56.3-23.97L56.3-23.97 57.57-23.97Q58.93-23.97 60.67-23.22L60.67-23.22Q63.99-21.78 65.43-17.82L65.43-17.82Q66.28-15.5 66.28-13.31L66.28-13.31 66.28-11.94Q66.28-9.67 65.35-7.28L65.35-7.28Q63.52-2.54 59.15-0.83L59.15-0.83Q57.3-0.1 54.83-0.1L54.83-0.1 50.93-0.39Z"
                                                                                opacity="1"
                                                                                transform="matrix(1,0,0,1,0,0)"
                                                                                fill="#c56e33"
                                                                                class="wordmark-text-0"
                                                                                data-fill-palette-color="primary"
                                                                                id="text-0"></path>
                                                                        </svg>
                                                                    </g>
                                                                </svg>
                                                            </g>
                                                        </svg>
                                                    </g>
                                                </svg>
                                            </g>
                                            <g transform="matrix(1,0,0,1,275.65704969206723,0)">
                                                <svg
                                                    viewBox="0 0 149.91812734576865 250.43141751630253"
                                                    height="250.43141751630253"
                                                    width="149.91812734576865">
                                                    <g>
                                                        <svg xmlns="http://www.w3.org/2000/svg"
                                                            xmlns:xlink="http://www.w3.org/1999/xlink"
                                                            version="1.1" x="0" y="0"
                                                            viewBox="22.25809854219902 3.657457452274704 55.48462405580425 92.6845425477253"
                                                            enable-background="new 0 0 100 100"
                                                            xml:space="preserve"
                                                            height="250.43141751630253"
                                                            width="149.91812734576865"
                                                            class="icon-icon-0"
                                                            data-fill-palette-color="accent"
                                                            id="icon-0"><path d="M48.075 24.534A3.75 3.75 0 0 0 46.112 27.04 6.4 6.4 0 0 1 47.424 26.158C49.711 24.999 52.27 25.367 53.417 26.939A3.763 3.763 0 0 0 48.075 24.534" fill="#51344d" data-fill-palette-color="accent"></path><path d="M45.795 23.688A3.205 3.205 0 0 0 42.849 29.168 5.4 5.4 0 0 1 42.735 27.827C42.817 25.645 44.149 23.89 45.795 23.688" fill="#51344d" data-fill-palette-color="accent"></path><path d="M40.272 27.297A2.587 2.587 0 0 0 42.555 31.773 4.4 4.4 0 0 1 41.613 31.232C40.201 30.175 39.65 28.482 40.272 27.297" fill="#51344d" data-fill-palette-color="accent"></path><path d="M57.604 38.726A5.765 5.765 0 0 0 51.275 29.927 10 10 0 0 1 53.429 31.039C56.674 33.253 58.069 36.964 56.803 39.666 57.098 39.389 57.366 39.072 57.604 38.726" fill="#51344d" data-fill-palette-color="accent"></path><path d="M44.636 48.831A7.7 7.7 0 0 0 46.274 49.136 7.77 7.77 0 0 0 54.63 41.998 7.75 7.75 0 0 0 52.322 35.838C52.501 36.874 52.556 37.972 52.467 39.102 52.052 44.381 48.646 48.5 44.636 48.831" fill="#51344d" data-fill-palette-color="accent"></path><path d="M43.501 47.904A9.77 9.77 0 0 0 48.031 40.976 16.6 16.6 0 0 1 44.828 43.552C39.161 47.062 32.449 46.673 29.128 42.852 29.358 43.499 29.662 44.133 30.037 44.74 32.881 49.331 38.911 50.749 43.501 47.904" fill="#51344d" data-fill-palette-color="accent"></path><path d="M40.5 41.158A20 20 0 0 1 35.619 40.311C27.931 37.979 22.94 31.594 23.755 25.547A11.8 11.8 0 0 0 22.769 27.873C20.879 34.1 24.396 40.685 30.625 42.576A11.77 11.77 0 0 0 40.5 41.158" fill="#51344d" data-fill-palette-color="accent"></path><path d="M34.275 35.691A23.5 23.5 0 0 1 31.353 30.684C27.644 22.044 29.591 12.762 35.618 8.932 34.666 9.117 33.721 9.404 32.794 9.802 25.795 12.808 22.556 20.923 25.562 27.921A13.77 13.77 0 0 0 34.275 35.691" fill="#51344d" data-fill-palette-color="accent"></path><path d="M34.229 26.377A26.8 26.8 0 0 1 36.18 20.029C40.585 10.201 49.92 4.639 57.824 6.746A15.7 15.7 0 0 0 54.898 5.041C46.933 1.475 37.584 5.04 34.018 13.004A15.77 15.77 0 0 0 34.229 26.377" fill="#51344d" data-fill-palette-color="accent"></path><path d="M76.108 21.823A17.7 17.7 0 0 0 75.263 18.904C71.733 9.727 61.427 5.146 52.249 8.678 47.129 10.646 43.441 14.724 41.792 19.535A30.2 30.2 0 0 1 48.398 16.012C59.199 11.856 70.502 14.373 75.553 21.523 76.074 22.895 79.461 32.602 75.226 42.301 74.893 42.926 67.054 57.655 66.255 59.766 66.242 59.801 64.95 63.313 64.713 66.017 64.713 66.074 64.66 71.551 62.151 74.503H37.548V75.487H62.34C65.018 72.52 65.134 66.233 65.134 66.014 65.365 63.382 66.637 59.937 66.649 59.903 67.439 57.817 75.517 42.645 75.605 42.478 79.583 33.365 76.948 24.254 76.108 21.823" fill="#51344d" data-fill-palette-color="accent"></path><path d="M62.331 77.78C62.331 78.528 61.621 79.133 60.743 79.133H39.134C38.257 79.133 37.548 78.529 37.548 77.78V77.528C37.548 76.787 38.256 76.181 39.134 76.181H60.743C61.621 76.181 62.331 76.786 62.331 77.528z" fill="#51344d" data-fill-palette-color="accent"></path><path d="M62.331 81.798C62.331 82.544 61.621 83.149 60.743 83.149H39.134C38.257 83.149 37.548 82.545 37.548 81.798V81.548C37.548 80.803 38.256 80.2 39.134 80.2H60.743C61.621 80.2 62.331 80.803 62.331 81.548z" fill="#51344d" data-fill-palette-color="accent"></path><path d="M62.1 85.814C62.1 86.546 61.402 87.138 60.542 87.138H39.336C38.476 87.138 37.78 86.546 37.78 85.814V85.571C37.78 84.839 38.476 84.247 39.336 84.247H60.542C61.401 84.247 62.1 84.839 62.1 85.571z" fill="#51344d" data-fill-palette-color="accent"></path><path d="M61.066 89.59C61.066 90.259 60.43 90.803 59.646 90.803H40.235C39.448 90.803 38.809 90.259 38.809 89.59V89.364C38.809 88.691 39.448 88.15 40.235 88.15H59.647C60.431 88.15 61.067 88.691 61.067 89.364z" fill="#51344d" data-fill-palette-color="accent"></path><path d="M58.932 93.113C58.932 93.653 58.416 94.091 57.781 94.091H42.096C41.462 94.091 40.946 93.653 40.946 93.113V92.931C40.946 92.387 41.462 91.952 42.096 91.952H57.78C58.416 91.952 58.931 92.387 58.931 92.931z" fill="#51344d" data-fill-palette-color="accent"></path><path d="M55.623 95.72C55.623 96.063 55.297 96.342 54.896 96.342H44.981C44.583 96.342 44.256 96.063 44.256 95.72V95.609C44.256 95.264 44.583 94.99 44.981 94.99H54.896C55.296 94.99 55.623 95.264 55.623 95.609z" fill="#51344d" data-fill-palette-color="accent"></path></svg>
                                                    </g>
                                                </svg>
                                            </g>
                                        </svg>
                                    </g>
                                </svg>
                            </g>
                            <g>
                                <path
                                    d="M114.916 33.747A122.216 122.216 0 0 1 280.604 33.747L273.753 33.747A115.365 115.365 0 0 0 121.767 33.747L114.916 33.747M114.916 213.453A122.216 122.216 0 0 0 280.604 213.453L273.753 213.453A115.365 115.365 0 0 1 121.767 213.453L114.916 213.453"
                                    fill="#51344d" stroke="transparent"
                                    data-fill-palette-color="tertiary"></path>
                            </g>
                        </svg>
                    </g>
                    <defs></defs>
                </svg>
                <rect width="395.52" height="247.2" fill="none" stroke="none" visibility="hidden"></rect>
            </g>
        </svg>
    </g>
</svg>